<svg width="216" height="40" viewBox="0 0 216 40" fill="none" xmlns="http://www.w3.org/2000/svg">
<path d="M164.439 21.748V21.6406C164.439 20.0794 164.615 18.6686 164.966 17.4082C165.317 16.1406 165.764 15.0306 166.309 14.0781C166.853 13.1257 167.426 12.3379 168.027 11.7148C168.629 11.0846 169.184 10.6299 169.692 10.3506L170.111 11.6611C169.689 11.9834 169.259 12.4274 168.822 12.9932C168.393 13.5589 167.995 14.2536 167.63 15.0771C167.272 15.9007 166.982 16.8568 166.76 17.9453C166.538 19.0339 166.427 20.2585 166.427 21.6191V21.7695C166.427 23.1302 166.538 24.3584 166.76 25.4541C166.982 26.5426 167.272 27.5023 167.63 28.333C167.995 29.1637 168.393 29.8691 168.822 30.4492C169.259 31.0365 169.689 31.502 170.111 31.8457L169.692 33.0488C169.184 32.7695 168.629 32.3148 168.027 31.6846C167.426 31.0615 166.853 30.2738 166.309 29.3213C165.764 28.376 165.317 27.2695 164.966 26.002C164.615 24.7344 164.439 23.3164 164.439 21.748ZM183.489 12.3594V13.4766L177.012 28H174.917L181.384 13.9922H172.919V12.3594H183.489ZM192.087 21.6406V21.748C192.087 23.3164 191.911 24.7344 191.56 26.002C191.21 27.2695 190.762 28.376 190.218 29.3213C189.673 30.2738 189.101 31.0615 188.499 31.6846C187.897 32.3148 187.342 32.7695 186.834 33.0488L186.415 31.8457C186.837 31.5234 187.264 31.0723 187.693 30.4922C188.123 29.9193 188.52 29.2103 188.886 28.3652C189.251 27.5273 189.545 26.5605 189.767 25.4648C189.989 24.362 190.1 23.1302 190.1 21.7695V21.6191C190.1 20.2585 189.981 19.0303 189.745 17.9346C189.509 16.8317 189.201 15.8613 188.821 15.0234C188.449 14.1855 188.048 13.4801 187.618 12.9072C187.196 12.3271 186.795 11.8796 186.415 11.5645L186.834 10.3506C187.342 10.6299 187.897 11.0846 188.499 11.7148C189.101 12.3379 189.673 13.1257 190.218 14.0781C190.762 15.0306 191.21 16.1406 191.56 17.4082C191.911 18.6686 192.087 20.0794 192.087 21.6406Z" fill="#333333"/>
<path d="M3.27637 26.335H3.48047C4.6263 26.335 5.55729 26.1738 6.27344 25.8516C6.98958 25.5293 7.54102 25.096 7.92773 24.5518C8.31445 24.0075 8.57943 23.3952 8.72266 22.7148C8.86589 22.0273 8.9375 21.3219 8.9375 20.5986V18.2031C8.9375 17.4941 8.85514 16.8639 8.69043 16.3125C8.53288 15.7611 8.31087 15.2992 8.02441 14.9268C7.74512 14.5544 7.42643 14.2715 7.06836 14.0781C6.71029 13.8848 6.33073 13.7881 5.92969 13.7881C5.47135 13.7881 5.05957 13.8812 4.69434 14.0674C4.33626 14.2464 4.0319 14.5007 3.78125 14.8301C3.53776 15.1595 3.35156 15.5462 3.22266 15.9902C3.09375 16.4342 3.0293 16.9176 3.0293 17.4404C3.0293 17.9059 3.08659 18.3571 3.20117 18.7939C3.31576 19.2308 3.49121 19.6247 3.72754 19.9756C3.96387 20.3265 4.25749 20.6058 4.6084 20.8135C4.96647 21.014 5.38542 21.1143 5.86523 21.1143C6.30924 21.1143 6.72461 21.0283 7.11133 20.8564C7.50521 20.6774 7.85254 20.4375 8.15332 20.1367C8.46126 19.8288 8.70475 19.4814 8.88379 19.0947C9.06999 18.708 9.17741 18.3034 9.20605 17.8809H10.1514C10.1514 18.4753 10.0332 19.0625 9.79688 19.6426C9.56771 20.2155 9.24544 20.7383 8.83008 21.2109C8.41471 21.6836 7.92773 22.0632 7.36914 22.3496C6.81055 22.6289 6.20182 22.7686 5.54297 22.7686C4.76953 22.7686 4.09993 22.6182 3.53418 22.3174C2.96842 22.0166 2.50293 21.6156 2.1377 21.1143C1.77962 20.613 1.51107 20.0544 1.33203 19.4385C1.16016 18.8154 1.07422 18.1852 1.07422 17.5479C1.07422 16.8031 1.17806 16.1048 1.38574 15.4531C1.59342 14.8014 1.90137 14.2285 2.30957 13.7344C2.71777 13.2331 3.22266 12.8428 3.82422 12.5635C4.43294 12.2842 5.13477 12.1445 5.92969 12.1445C6.82487 12.1445 7.58757 12.3236 8.21777 12.6816C8.84798 13.0397 9.36003 13.5195 9.75391 14.1211C10.1549 14.7227 10.4486 15.3994 10.6348 16.1514C10.821 16.9033 10.9141 17.6768 10.9141 18.4717V19.1914C10.9141 20.0007 10.8604 20.8242 10.7529 21.6621C10.6527 22.4928 10.4557 23.2878 10.1621 24.0469C9.87565 24.806 9.45671 25.4863 8.90527 26.0879C8.35384 26.6823 7.63411 27.1549 6.74609 27.5059C5.86523 27.8496 4.77669 28.0215 3.48047 28.0215H3.27637V26.335ZM15.4619 26.9473C15.4619 26.6107 15.5657 26.3278 15.7734 26.0986C15.9882 25.8623 16.2962 25.7441 16.6972 25.7441C17.0983 25.7441 17.4026 25.8623 17.6103 26.0986C17.8252 26.3278 17.9326 26.6107 17.9326 26.9473C17.9326 27.2767 17.8252 27.556 17.6103 27.7852C17.4026 28.0143 17.0983 28.1289 16.6972 28.1289C16.2962 28.1289 15.9882 28.0143 15.7734 27.7852C15.5657 27.556 15.4619 27.2767 15.4619 26.9473ZM25.0693 20.5557L23.4794 20.1475L24.2636 12.3594H32.288V14.1963H25.9501L25.4775 18.4502C25.7639 18.2855 26.1256 18.1315 26.5624 17.9883C27.0064 17.8451 27.5149 17.7734 28.0878 17.7734C28.8111 17.7734 29.4592 17.8988 30.0321 18.1494C30.6051 18.3929 31.092 18.7438 31.4931 19.2021C31.9013 19.6605 32.2128 20.2119 32.4277 20.8564C32.6425 21.501 32.7499 22.2207 32.7499 23.0156C32.7499 23.7676 32.6461 24.4587 32.4384 25.0889C32.2379 25.7191 31.9335 26.2705 31.5253 26.7432C31.1171 27.2087 30.6015 27.5703 29.9784 27.8281C29.3626 28.0859 28.6357 28.2148 27.7978 28.2148C27.1676 28.2148 26.5696 28.1289 26.0038 27.957C25.4452 27.778 24.9439 27.5094 24.4999 27.1514C24.0631 26.7861 23.705 26.335 23.4257 25.7979C23.1536 25.2536 22.9817 24.6162 22.9101 23.8857H24.8007C24.8866 24.473 25.0585 24.9671 25.3163 25.3682C25.5741 25.7692 25.9107 26.0736 26.3261 26.2812C26.7486 26.4818 27.2392 26.582 27.7978 26.582C28.2704 26.582 28.6894 26.4997 29.0546 26.335C29.4198 26.1702 29.7278 25.9339 29.9784 25.626C30.2291 25.318 30.4189 24.9456 30.5478 24.5088C30.6838 24.0719 30.7519 23.5814 30.7519 23.0371C30.7519 22.543 30.6838 22.0846 30.5478 21.6621C30.4117 21.2396 30.2076 20.8708 29.9355 20.5557C29.6705 20.2406 29.3446 19.9971 28.9579 19.8252C28.5712 19.6462 28.1272 19.5566 27.6259 19.5566C26.9599 19.5566 26.455 19.6462 26.1112 19.8252C25.7747 20.0042 25.4273 20.2477 25.0693 20.5557Z" fill="#333333"/>
<path d="M99.0584 11.5535C99.3745 10.6689 100.625 10.6689 100.942 11.5535L102.233 15.1654C102.375 15.5632 102.752 15.8288 103.174 15.8288L107.134 15.8289C108.125 15.8289 108.512 17.1168 107.685 17.6633L104.651 19.6673C104.267 19.9211 104.105 20.4046 104.26 20.8382L105.457 24.1862C105.78 25.091 104.766 25.8867 103.964 25.3571L100.551 23.1032C100.217 22.8824 99.7831 22.8824 99.4489 23.1032L96.036 25.3571C95.2343 25.8867 94.2199 25.091 94.5433 24.1862L95.7397 20.8382C95.8947 20.4046 95.7335 19.9211 95.3492 19.6673L92.3153 17.6633C91.4879 17.1168 91.8748 15.8289 92.8664 15.8289L96.8256 15.8288C97.2481 15.8288 97.625 15.5632 97.7673 15.1654L99.0584 11.5535Z" fill="#FF9900"/>
<path d="M78.0584 11.6343C78.3745 10.7498 79.6255 10.7498 79.9416 11.6343L81.2327 15.2462C81.375 15.644 81.7519 15.9096 82.1744 15.9096L86.1336 15.9097C87.1252 15.9097 87.5121 17.1976 86.6847 17.7441L83.6508 19.7481C83.2665 20.002 83.1053 20.4854 83.2603 20.9191L84.4567 24.267C84.7801 25.1718 83.7657 25.9675 82.964 25.438L79.5511 23.184C79.2169 22.9632 78.7831 22.9632 78.4489 23.184L75.036 25.438C74.2343 25.9675 73.2199 25.1718 73.5433 24.267L74.7397 20.9191C74.8947 20.4854 74.7335 20.002 74.3492 19.7481L71.3153 17.7441C70.4879 17.1976 70.8748 15.9097 71.8664 15.9097L75.8256 15.9096C76.2481 15.9096 76.625 15.644 76.7673 15.2462L78.0584 11.6343Z" fill="#FF9900"/>
<path d="M56.0584 11.6343C56.3745 10.7498 57.6255 10.7498 57.9416 11.6343L59.2327 15.2462C59.375 15.644 59.7519 15.9096 60.1744 15.9096L64.1336 15.9097C65.1252 15.9097 65.5121 17.1976 64.6847 17.7441L61.6508 19.7481C61.2665 20.002 61.1053 20.4854 61.2603 20.9191L62.4567 24.267C62.7801 25.1718 61.7657 25.9675 60.964 25.438L57.5511 23.184C57.2169 22.9632 56.7831 22.9632 56.4489 23.184L53.036 25.438C52.2343 25.9675 51.2199 25.1718 51.5433 24.267L52.7397 20.9191C52.8947 20.4854 52.7335 20.002 52.3492 19.7481L49.3153 17.7441C48.4879 17.1976 48.8748 15.9097 49.8664 15.9097L53.8256 15.9096C54.2481 15.9096 54.625 15.644 54.7673 15.2462L56.0584 11.6343Z" fill="#FF9900"/>
<path d="M121.058 11.5535C121.375 10.6689 122.625 10.6689 122.942 11.5535L124.233 15.1654C124.375 15.5632 124.752 15.8288 125.174 15.8288L129.134 15.8289C130.125 15.8289 130.512 17.1168 129.685 17.6633L126.651 19.6673C126.267 19.9211 126.105 20.4046 126.26 20.8382L127.457 24.1862C127.78 25.091 126.766 25.8867 125.964 25.3571L122.551 23.1032C122.217 22.8824 121.783 22.8824 121.449 23.1032L118.036 25.3571C117.234 25.8867 116.22 25.091 116.543 24.1862L117.74 20.8382C117.895 20.4046 117.733 19.9211 117.349 19.6673L114.315 17.6633C113.488 17.1168 113.875 15.8289 114.866 15.8289L118.826 15.8288C119.248 15.8288 119.625 15.5632 119.767 15.1654L121.058 11.5535Z" fill="#FF9900"/>
<path d="M143.058 11.5535C143.375 10.6689 144.625 10.6689 144.942 11.5535L146.233 15.1654C146.375 15.5632 146.752 15.8288 147.174 15.8288L151.134 15.8289C152.125 15.8289 152.512 17.1168 151.685 17.6633L148.651 19.6673C148.267 19.9211 148.105 20.4046 148.26 20.8382L149.457 24.1862C149.78 25.091 148.766 25.8867 147.964 25.3571L144.551 23.1032C144.217 22.8824 143.783 22.8824 143.449 23.1032L140.036 25.3571C139.234 25.8867 138.22 25.091 138.543 24.1862L139.74 20.8382C139.895 20.4046 139.733 19.9211 139.349 19.6673L136.315 17.6633C135.488 17.1168 135.875 15.8289 136.866 15.8289L140.826 15.8288C141.248 15.8288 141.625 15.5632 141.767 15.1654L143.058 11.5535Z" fill="url(#paint0_linear_7_394)"/>
<defs>
<linearGradient id="paint0_linear_7_394" x1="133" y1="19.354" x2="154.71" y2="13.1243" gradientUnits="userSpaceOnUse">
<stop offset="0.442708" stop-color="#FF9900"/>
<stop offset="0.479167" stop-color="#BABABA" stop-opacity="0.9"/>
</linearGradient>
</defs>
</svg>
